<?xml version="1.0"?>
<svg version="1.1" xmlns="http://www.w3.org/2000/svg" xmlns:xlink="http://www.w3.org/1999/xlink" width="200" height="120">
    <desc iVinci="yes" version="4.6" gridStep="20" showGrid="no" snapToGrid="no" codePlatform="0"/>
    <g id="Layer1" name="Layer 2" opacity="1">
        <g id="Shape1">
            <desc shapeID="1" type="0" basicInfo-basicType="0" basicInfo-roundedRectRadius="12" basicInfo-polygonSides="6" basicInfo-starPoints="5" bounding="rect(-35.4383,-21.0376,70.8767,42.0752)" text="" font-familyName="Helvetica" font-pixelSize="20" font-bold="0" font-underline="0" font-alignment="1" strokeStyle="0" markerStart="0" markerEnd="0" shadowEnabled="0" shadowOffsetX="0" shadowOffsetY="2" shadowBlur="4" shadowOpacity="160" blurEnabled="0" blurRadius="4" transform="matrix(1,0,0,1,82.6477,54.4724)" pers-center="0,0" pers-size="0,0" pers-start="0,0" pers-end="0,0" locked="0" mesh="" flag=""/>
            <path id="shapePath1" d="M47.2094,33.4348 C71.9842,45.1994 98.1835,56.2455 118.086,75.5099 " style="stroke:#323232;stroke-opacity:1;stroke-width:1;stroke-linejoin:miter;stroke-miterlimit:2;stroke-linecap:round;fill-rule:evenodd;fill:#0c0c0c;fill-opacity:1;"/>
        </g>
        <g id="Shape2">
            <desc shapeID="2" type="0" basicInfo-basicType="0" basicInfo-roundedRectRadius="12" basicInfo-polygonSides="6" basicInfo-starPoints="5" bounding="rect(-97.7998,-66.1182,195.6,132.236)" text="" font-familyName="Helvetica" font-pixelSize="20" font-bold="0" font-underline="0" font-alignment="1" strokeStyle="0" markerStart="0" markerEnd="0" shadowEnabled="0" shadowOffsetX="0" shadowOffsetY="2" shadowBlur="4" shadowOpacity="160" blurEnabled="0" blurRadius="4" transform="matrix(1,0,0,1,96.9232,66.4938)" pers-center="0,0" pers-size="0,0" pers-start="0,0" pers-end="0,0" locked="0" mesh="" flag=""/>
            <path id="shapePath2" d="M2.88015,0.375671 C59.5998,18.1831 109.275,52.8265 164.669,74.2577 C172.279,86.0391 183.119,95.5832 194.723,103.31 C191.078,107.192 191.591,112.88 191.718,119.338 C160.835,127.746 128.678,129.322 97.5493,132.612 C66.6924,118.91 29.6052,119.82 -0.876564,119.088 " style="stroke:#323232;stroke-opacity:1;stroke-width:1;stroke-linejoin:miter;stroke-miterlimit:2;stroke-linecap:round;fill-rule:evenodd;fill:#0c0c0c;fill-opacity:1;"/>
        </g>
        <g id="Shape3">
            <desc shapeID="3" type="0" basicInfo-basicType="0" basicInfo-roundedRectRadius="12" basicInfo-polygonSides="6" basicInfo-starPoints="5" bounding="rect(-107.192,-47.7103,214.383,95.4205)" text="" font-familyName="Helvetica" font-pixelSize="20" font-bold="0" font-underline="0" font-alignment="1" strokeStyle="0" markerStart="0" markerEnd="0" shadowEnabled="0" shadowOffsetX="0" shadowOffsetY="2" shadowBlur="4" shadowOpacity="160" blurEnabled="0" blurRadius="4" transform="matrix(1,0,0,1,112.326,20.7871)" pers-center="0,0" pers-size="0,0" pers-start="0,0" pers-end="0,0" locked="0" mesh="" flag=""/>
            <path id="shapePath3" d="M5.13418,1.62791 L123.345,64.7407 C135.719,69.3068 149.445,64.7735 161.914,68.4974 C170.47,32.5935 202.841,3.79255 219.517,-26.9231 " style="stroke:#323232;stroke-opacity:1;stroke-width:1;stroke-linejoin:miter;stroke-miterlimit:2;stroke-linecap:round;fill-rule:evenodd;fill:#0c0c0c;fill-opacity:1;"/>
        </g>
        <g id="Shape4">
            <desc shapeID="4" type="0" basicInfo-basicType="0" basicInfo-roundedRectRadius="12" basicInfo-polygonSides="6" basicInfo-starPoints="5" bounding="rect(-103.202,-73.1307,206.403,146.261)" text="" font-familyName="Helvetica" font-pixelSize="20" font-bold="0" font-underline="0" font-alignment="1" strokeStyle="0" markerStart="0" markerEnd="0" shadowEnabled="0" shadowOffsetX="0" shadowOffsetY="2" shadowBlur="4" shadowOpacity="160" blurEnabled="0" blurRadius="4" transform="matrix(1,0,0,1,109.314,68.4974)" pers-center="0,0" pers-size="0,0" pers-start="0,0" pers-end="0,0" locked="0" mesh="" flag=""/>
            <path id="shapePath4" d="M6.38641,-4.63328 C5.22443,3.55813 7.85513,10.8372 12.3972,17.6566 C59.7431,40.5537 105.789,76.4426 161.163,71.7532 L186.458,76.0108 C192.972,80.7327 198.39,85.571 206.744,85.2774 C214.326,102.875 214.466,124.384 206.995,141.628 " style="stroke:#323232;stroke-opacity:1;stroke-width:1;stroke-linejoin:miter;stroke-miterlimit:2;stroke-linecap:round;fill-rule:evenodd;fill:#0c0c0c;fill-opacity:1;"/>
        </g>
        <g id="Shape5">
            <desc shapeID="5" type="0" basicInfo-basicType="0" basicInfo-roundedRectRadius="12" basicInfo-polygonSides="6" basicInfo-starPoints="5" bounding="rect(-62.9505,-62.6119,125.901,125.224)" text="" font-familyName="Helvetica" font-pixelSize="20" font-bold="0" font-underline="0" font-alignment="1" strokeStyle="0" markerStart="0" markerEnd="0" shadowEnabled="0" shadowOffsetX="0" shadowOffsetY="2" shadowBlur="4" shadowOpacity="160" blurEnabled="0" blurRadius="4" transform="matrix(1,0,0,1,211.916,42.7013)" pers-center="0,0" pers-size="0,0" pers-start="0,0" pers-end="0,0" locked="0" mesh="" flag=""/>
            <path id="shapePath5" d="M153.9,-6.63686 C138.228,33.6267 162.481,70.8985 190.215,98.3007 C202.757,97.8799 214.429,104.329 225.778,105.313 C228.904,102.861 232.176,100.574 234.795,97.5493 C244.003,57.0429 268.934,20.9675 274.866,-19.9106 " style="stroke:#323232;stroke-opacity:1;stroke-width:1;stroke-linejoin:miter;stroke-miterlimit:2;stroke-linecap:round;fill-rule:evenodd;fill:#0c0c0c;fill-opacity:1;"/>
        </g>
        <g id="Shape6">
            <desc shapeID="6" type="0" basicInfo-basicType="0" basicInfo-roundedRectRadius="12" basicInfo-polygonSides="6" basicInfo-starPoints="5" bounding="rect(-123.051,-71.0348,246.102,142.07)" text="" font-familyName="Helvetica" font-pixelSize="20" font-bold="0" font-underline="0" font-alignment="1" strokeStyle="0" markerStart="0" markerEnd="0" shadowEnabled="0" shadowOffsetX="0" shadowOffsetY="2" shadowBlur="4" shadowOpacity="160" blurEnabled="0" blurRadius="4" transform="matrix(1,0,0,1,150.225,30.5615)" pers-center="0,0" pers-size="0,0" pers-start="0,0" pers-end="0,0" locked="0" mesh="" flag=""/>
            <path id="shapePath6" d="M27.1736,12.6476 C34.5855,91.9348 133.062,104.654 197.478,101.056 C220.965,78.7674 245.48,57.0537 267.102,32.6834 C277.837,6.83395 274.305,-17.5889 258.587,-40.4473 C254.28,-40.4407 248.266,-40.7423 244.813,-39.4455 " style="stroke:#323232;stroke-opacity:1;stroke-width:1;stroke-linejoin:miter;stroke-miterlimit:2;stroke-linecap:round;fill-rule:evenodd;fill:#0c0c0c;fill-opacity:1;"/>
        </g>
        <g id="Shape7">
            <desc shapeID="7" type="0" basicInfo-basicType="0" basicInfo-roundedRectRadius="12" basicInfo-polygonSides="6" basicInfo-starPoints="5" bounding="rect(-125.774,-99.6781,251.547,199.356)" text="" font-familyName="Helvetica" font-pixelSize="20" font-bold="0" font-underline="0" font-alignment="1" strokeStyle="0" markerStart="0" markerEnd="0" shadowEnabled="0" shadowOffsetX="0" shadowOffsetY="2" shadowBlur="4" shadowOpacity="160" blurEnabled="0" blurRadius="4" transform="matrix(1,0,0,1,133.815,59.2309)" pers-center="0,0" pers-size="0,0" pers-start="0,0" pers-end="0,0" locked="0" mesh="" flag=""/>
            <path id="shapePath7" d="M8.13955,1.62791 C6.37885,51.5492 28.6037,101.066 54.9732,143.131 C70.6264,148.775 86.2456,154.52 102.308,158.909 C137.01,135.124 184.594,141.937 219.768,117.335 C237.096,98.4156 244.824,77.5052 238.787,51.5451 C238.307,41.4665 237.884,31.2265 238.966,21.2099 C243.684,0.237686 251.52,-21.7225 259.589,-40.4473 " style="stroke:#323232;stroke-opacity:1;stroke-width:1;stroke-linejoin:miter;stroke-miterlimit:2;stroke-linecap:round;fill-rule:evenodd;fill:#0c0c0c;fill-opacity:1;"/>
        </g>
        <g id="Shape8">
            <desc shapeID="8" type="0" basicInfo-basicType="0" basicInfo-roundedRectRadius="12" basicInfo-polygonSides="6" basicInfo-starPoints="5" bounding="rect(-11.6243,-34.1861,23.2487,68.3722)" text="" font-familyName="Helvetica" font-pixelSize="20" font-bold="0" font-underline="0" font-alignment="1" strokeStyle="0" markerStart="0" markerEnd="0" shadowEnabled="0" shadowOffsetX="0" shadowOffsetY="2" shadowBlur="4" shadowOpacity="160" blurEnabled="0" blurRadius="4" transform="matrix(1,0,0,1,19.263,88.6584)" pers-center="0,0" pers-size="0,0" pers-start="0,0" pers-end="0,0" locked="0" mesh="" flag=""/>
            <path id="shapePath8" d="M7.63865,54.4723 C15.7666,67.7961 23.1984,78.6398 30.4294,88.0323 C27.4384,79.7304 32.7025,69.471 30.1789,62.2362 C21.0887,80.41 27.1765,103.889 16.6548,122.845 " style="stroke:#323232;stroke-opacity:1;stroke-width:1;stroke-linejoin:miter;stroke-miterlimit:2;stroke-linecap:round;fill-rule:evenodd;fill:#0c0c0c;fill-opacity:1;"/>
        </g>
        <g id="Shape9">
            <desc shapeID="9" type="0" basicInfo-basicType="0" basicInfo-roundedRectRadius="12" basicInfo-polygonSides="6" basicInfo-starPoints="5" bounding="rect(-13.0233,-61.7353,26.0465,123.471)" text="" font-familyName="Helvetica" font-pixelSize="20" font-bold="0" font-underline="0" font-alignment="1" strokeStyle="0" markerStart="0" markerEnd="0" shadowEnabled="0" shadowOffsetX="0" shadowOffsetY="2" shadowBlur="4" shadowOpacity="160" blurEnabled="0" blurRadius="4" transform="matrix(1,0,0,1,21.6637,68.3722)" pers-center="0,0" pers-size="0,0" pers-start="0,0" pers-end="0,0" locked="0" mesh="" flag=""/>
            <path id="shapePath9" d="M17.6566,6.63686 C17.5587,45.2946 30.2408,82.9469 34.687,120.591 C27.5724,126.649 17.4434,127.829 8.64044,130.108 " style="stroke:#323232;stroke-opacity:1;stroke-width:1;stroke-linejoin:miter;stroke-miterlimit:2;stroke-linecap:round;fill-rule:evenodd;fill:#0c0c0c;fill-opacity:1;"/>
        </g>
        <g id="Shape10">
            <desc shapeID="10" type="0" basicInfo-basicType="0" basicInfo-roundedRectRadius="12" basicInfo-polygonSides="6" basicInfo-starPoints="5" bounding="rect(-144.808,-91.1987,289.616,182.397)" text="" font-familyName="Helvetica" font-pixelSize="20" font-bold="0" font-underline="0" font-alignment="1" strokeStyle="0" markerStart="0" markerEnd="0" shadowEnabled="0" shadowOffsetX="0" shadowOffsetY="2" shadowBlur="4" shadowOpacity="160" blurEnabled="0" blurRadius="4" transform="matrix(1,0,0,1,133.314,52.1826)" pers-center="0,0" pers-size="0,0" pers-start="0,0" pers-end="0,0" locked="0" mesh="" flag=""/>
            <path id="shapePath10" d="M59.7318,141.879 C35.5029,145.622 18.8694,122.857 -1.62791,113.578 C-8.02223,73.2211 5.58981,30.7479 -11.3954,-8.89089 C-10.1283,-16.0378 -14.0847,-24.9163 -7.8891,-30.4294 C-1.34825,-29.1782 3.33008,-36.2538 7.63865,-37.9428 C76.8655,-33.2979 149.755,-49.8544 215.761,-24.4186 C242.947,5.12764 255.702,43.6051 275.117,77.764 L278.122,143.381 " style="stroke:#323232;stroke-opacity:1;stroke-width:1;stroke-linejoin:miter;stroke-miterlimit:2;stroke-linecap:round;fill-rule:evenodd;fill:#0c0c0c;fill-opacity:1;"/>
        </g>
    </g>
    <g id="Layer2" name="Layer 1" opacity="1">
        <g id="Shape11">
            <desc shapeID="11" type="0" basicInfo-basicType="0" basicInfo-roundedRectRadius="12" basicInfo-polygonSides="6" basicInfo-starPoints="5" bounding="rect(-9.5,-9.55,19,19.1)" text="" font-familyName="" font-pixelSize="20" font-bold="0" font-underline="0" font-alignment="1" strokeStyle="0" markerStart="0" markerEnd="0" shadowEnabled="0" shadowOffsetX="0" shadowOffsetY="2" shadowBlur="4" shadowOpacity="160" blurEnabled="0" blurRadius="4" transform="matrix(1,0,0,1,87.5,16.45)" pers-center="0,0" pers-size="0,0" pers-start="0,0" pers-end="0,0" locked="0" mesh="" flag=""/>
            <path id="shapePath11" d="M80.9,9.9 C78.8,12.1 78,13.8 78,16.5 C78,21.6 82.4,26 87.5,26 C92.6,26 97,21.6 97,16.5 C97,13.8 96.2,12.1 94.1,9.9 C90,5.9 85,5.9 80.9,9.9 M91.8,11.6 C94.5,13.4 94.8,18.5 92.3,21.2 C90.3,23.4 85.3,23.5 82.8,21.3 C80.6,19.3 80.5,14.3 82.7,11.8 C84.7,9.6 88.8,9.5 91.8,11.6 Z" style="stroke:none;fill-rule:nonzero;fill:#1affff;fill-opacity:1;"/>
        </g>
        <g id="Shape12">
            <desc shapeID="12" type="0" basicInfo-basicType="0" basicInfo-roundedRectRadius="12" basicInfo-polygonSides="6" basicInfo-starPoints="5" bounding="rect(-67.5273,-53.5,135.055,107)" text="" font-familyName="" font-pixelSize="20" font-bold="0" font-underline="0" font-alignment="1" strokeStyle="0" markerStart="0" markerEnd="0" shadowEnabled="0" shadowOffsetX="0" shadowOffsetY="2" shadowBlur="4" shadowOpacity="160" blurEnabled="0" blurRadius="4" transform="matrix(1,0,0,1,107.473,66.5)" pers-center="0,0" pers-size="0,0" pers-start="0,0" pers-end="0,0" locked="0" mesh="" flag=""/>
            <path id="shapePath12" d="M129,14.7 C127.1,15.5 122.7,17.2 119.4,18.5 C116,19.7 108.5,23.5 102.7,26.9 L92.2,33.1 L83.9,29.2 C79.3,27 73.7,24.7 71.5,23.9 C69.3,23.2 67,22.2 66.3,21.7 C63.6,19.8 54.2,17 50.2,17 C41,17 36.6,26.8 42.9,33.1 C44.5,34.7 46.8,36 47.9,36 C49,36 53.9,37.7 58.7,39.8 C63.5,42 68.7,44 70.1,44.3 L72.7,45 L68.9,49.1 C66.8,51.4 64.6,54.8 64,56.6 C63.3,58.5 62.7,60 62.5,60 C62.3,60 60.8,58.6 59.2,57 C55,52.9 50,52.9 45.9,56.9 C41.9,61 41.9,66 45.9,70.1 C49.2,73.3 54.1,74 57.5,71.6 C59.5,70.3 59.5,70.5 59.3,86.6 C59.1,101.5 58.9,103.3 57.1,105.7 C54.3,109.2 54.4,114.2 57.4,117.7 C60.3,121 62,120.2 59.6,116.6 C57.4,113.2 57.6,109.4 60,106.3 C61.8,104 62,102.2 62,86.5 C62,67.9 61.4,65.5 57.4,68.5 C54.7,70.5 49.6,70.4 47.7,68.2 C45.2,65.5 45.5,60.4 48.2,58.6 C51.6,56.2 54.5,56.7 58.5,60.1 C61.9,63.1 62.1,63.2 64,61.5 C65.1,60.5 66.2,58.8 66.6,57.6 C66.9,56.5 69,53.3 71.2,50.7 C75.4,45.6 75.6,43.6 71.8,42.1 C70.5,41.6 65.1,39.4 59.7,37.1 C54.3,34.9 49.1,33 48.1,33 C45.4,33 43,29.8 43,26.2 C43,22.5 46,20 50.5,20 C53.5,20 63,23 65.3,24.7 C66,25.2 68.3,26.2 70.5,26.9 C72.7,27.7 78.2,30 82.8,32.1 C87.3,34.3 91.6,36 92.3,36 C92.9,36 98.5,33 104.5,29.5 C110.6,25.9 117.5,22.3 120,21.6 C122.5,20.8 126.5,19.3 129,18.1 C133,16.3 135.4,16 150.5,16 C169.9,16 172,16.6 172,22.4 C172,28.4 170.3,29 153.1,29 C138.3,29 137.6,29.1 131,32 C127.2,33.6 123.6,35 122.9,35 C121.3,35 113.1,39.7 110.3,42.2 C107.5,44.8 108.2,46.4 113.9,50.2 C120.4,54.7 128.1,62.7 131.2,68.1 C135.2,74.9 136.4,75.6 138.8,72.5 C139.9,71.1 141.1,68.2 141.5,66 C142.6,59.6 147.9,57.1 152.9,60.6 C155,62.1 155.2,62.8 154.7,68.1 C154.1,74.9 155.7,77.2 160.2,76.3 C164.4,75.5 168,78.3 168,82.4 C168,84.3 167.2,86.4 166.2,87.3 C163.9,89.4 158.7,89.5 157,87.4 C153.5,83.2 152.4,83.6 146.4,91.6 C140.8,99 140.7,99.2 142.6,101.1 C144.3,102.8 144.9,102.8 147.8,101.8 C152.4,100 156.4,102.3 156.8,106.9 C157.2,111.2 154.7,114 150.5,114 C146.8,114 144,111.4 144,108 C144,104.3 141.4,102.1 138.2,103.1 C136.7,103.5 133.5,104.3 131,104.9 C123.2,106.6 113.7,109 109.2,110.5 C103.4,112.5 84.9,112.5 79.1,110.4 C75.1,109 74.6,109.1 72.9,110.6 C71.8,111.5 71,112.7 71,113.3 C71,113.8 70.1,115.5 68.9,117.1 C67.3,119.4 67.2,120 68.4,120 C70.1,120 74,115.4 74,113.3 C74,111.9 77.6,112.3 81.2,114.1 C84,115.6 104.5,115.2 109.2,113.5 C113.7,112 123.2,109.6 131,107.9 C133.5,107.3 136.7,106.5 138.3,106 C140.8,105.2 141,105.4 141,108.2 C141,112.6 145.8,117 150.5,117 C155.6,117 160,112.6 160,107.5 C160,100.5 152.1,95.8 145.9,99 C143.4,100.4 143.5,98.8 146,96.5 C147.2,95.4 149,92.9 150.2,90.8 L152.3,87.1 L155.2,89.5 C161.5,94.8 171,90.6 171,82.5 C171,77.1 166.3,72.7 161.1,73.2 L157.2,73.5 L157.7,67.8 C158.2,62.5 158.1,61.9 155.2,59.1 C149.4,53.3 141.1,56 139,64.3 C136.8,72.9 137,72.8 133.6,66.8 C130.2,60.8 121.9,52.1 115.2,47.6 L110.9,44.7 L116.2,41.3 C119.1,39.5 122.1,38 122.8,38 C123.6,38 127.2,36.6 131,35 C137.6,32.1 138.3,32 153.5,32 L169.2,32 L172.1,29.1 C174.2,26.9 175,25.2 175,22.5 C175,19.8 174.2,18.1 172.1,15.9 L169.2,13 L150.8,13 C136.3,13.1 131.8,13.4 129,14.7 Z" style="stroke:none;fill-rule:nonzero;fill:#1affff;fill-opacity:1;"/>
        </g>
        <g id="Shape13">
            <desc shapeID="13" type="0" basicInfo-basicType="0" basicInfo-roundedRectRadius="12" basicInfo-polygonSides="6" basicInfo-starPoints="5" bounding="rect(-24.7398,-23.1338,49.4795,46.2676)" text="" font-familyName="" font-pixelSize="20" font-bold="0" font-underline="0" font-alignment="1" strokeStyle="0" markerStart="0" markerEnd="0" shadowEnabled="0" shadowOffsetX="0" shadowOffsetY="2" shadowBlur="4" shadowOpacity="160" blurEnabled="0" blurRadius="4" transform="matrix(1,0,0,1,100.223,75.8481)" pers-center="0,0" pers-size="0,0" pers-start="0,0" pers-end="0,0" locked="0" mesh="" flag=""/>
            <path id="shapePath13" d="M88.9,54.1 C84.7,56.2 80.8,60.5 77.9,66.3 C75.1,71.7 74.6,91.7 77.1,94.3 C81.5,98.7 96.6,100.5 105.2,97.5 C107.6,96.7 112.4,95.4 116,94.6 C126.9,92 127.6,88.5 119.5,76.5 C113.4,67.5 104.4,59.3 93.5,52.8 C93,52.5 90.9,53 88.9,54.1 M109.1,68.4 C117.7,76.8 124.3,87.1 122.3,89.1 C121.7,89.7 118.4,90.8 114.9,91.6 C111.4,92.4 106.6,93.7 104.2,94.5 C98.4,96.5 89.5,96.4 83.5,94.2 L78.5,92.4 L78.7,81.2 C79,68.9 80.3,64.8 85.7,59.9 C91.1,54.9 91.8,54.9 98,59.2 C101.2,61.3 106.2,65.5 109.1,68.4 Z" style="stroke:none;fill-rule:nonzero;fill:#1affff;fill-opacity:1;"/>
        </g>
        <g id="Shape14">
            <desc shapeID="14" type="0" basicInfo-basicType="0" basicInfo-roundedRectRadius="12" basicInfo-polygonSides="6" basicInfo-starPoints="5" bounding="rect(-9.5,-9.5,19,19)" text="" font-familyName="" font-pixelSize="20" font-bold="0" font-underline="0" font-alignment="1" strokeStyle="0" markerStart="0" markerEnd="0" shadowEnabled="0" shadowOffsetX="0" shadowOffsetY="2" shadowBlur="4" shadowOpacity="160" blurEnabled="0" blurRadius="4" transform="matrix(1,0,0,1,98.5,80.5)" pers-center="0,0" pers-size="0,0" pers-start="0,0" pers-end="0,0" locked="0" mesh="" flag=""/>
            <path id="shapePath14" d="M91.9,73.9 C89.8,76.1 89,77.8 89,80.5 C89,85.6 93.4,90 98.5,90 C103.6,90 108,85.6 108,80.5 C108,75.4 103.6,71 98.5,71 C95.8,71 94.1,71.8 91.9,73.9 M102.8,75.6 C105.5,77.4 105.8,82.5 103.3,85.2 C101.3,87.4 96.3,87.5 93.8,85.3 C91.2,83 91.4,77.5 94.2,75.6 C95.4,74.7 97.4,74 98.5,74 C99.6,74 101.6,74.7 102.8,75.6 Z" style="stroke:none;fill-rule:nonzero;fill:#1affff;fill-opacity:1;"/>
        </g>
        <g id="Shape15">
            <desc shapeID="15" type="0" basicInfo-basicType="0" basicInfo-roundedRectRadius="12" basicInfo-polygonSides="6" basicInfo-starPoints="5" bounding="rect(-9.5,-9.5,19,19)" text="" font-familyName="" font-pixelSize="20" font-bold="0" font-underline="0" font-alignment="1" strokeStyle="0" markerStart="0" markerEnd="0" shadowEnabled="0" shadowOffsetX="0" shadowOffsetY="2" shadowBlur="4" shadowOpacity="160" blurEnabled="0" blurRadius="4" transform="matrix(1,0,0,1,48.5,91.5)" pers-center="0,0" pers-size="0,0" pers-start="0,0" pers-end="0,0" locked="0" mesh="" flag=""/>
            <path id="shapePath15" d="M41.9,84.9 C39.8,87.1 39,88.8 39,91.5 C39,96.6 43.4,101 48.5,101 C53.6,101 58,96.6 58,91.5 C58,88.8 57.2,87.1 55.1,84.9 C52.9,82.8 51.2,82 48.5,82 C45.8,82 44.1,82.8 41.9,84.9 M52.8,86.6 C55.5,88.4 55.8,93.5 53.3,96.2 C51.3,98.4 46.3,98.5 43.8,96.3 C41.2,94 41.4,88.5 44.2,86.6 C45.4,85.7 47.4,85 48.5,85 C49.6,85 51.6,85.7 52.8,86.6 Z" style="stroke:none;fill-rule:nonzero;fill:#1affff;fill-opacity:1;"/>
        </g>
    </g>
</svg>
